<mxfile host="app.diagrams.net" modified="2023-04-16T16:20:32.099Z" agent="Mozilla/5.0 (Windows NT 10.0; Win64; x64) AppleWebKit/537.36 (KHTML, like Gecko) Chrome/103.0.0.0 Safari/537.36" version="21.1.8" etag="g2liLta3B255JrsoK-or" type="github">
  <diagram name="第 1 页" id="COHOG_l-flRxhmHxW2eb">
    <mxGraphModel>
      <root>
        <mxCell id="0" />
        <mxCell id="1" parent="0" />
      </root>
    </mxGraphModel>
  </diagram>
</mxfile>
